<?xml version="1.0" ?><svg id="Layer_1" style="enable-background:new 0 0 128 128;" version="1.1" viewBox="0 0 128 128" xml:space="preserve" xmlns="http://www.w3.org/2000/svg" xmlns:xlink="http://www.w3.org/1999/xlink"><style type="text/css">
	.st0{fill:#FFFFFF;}
	.st1{fill:none;stroke:#444B54;stroke-width:6;stroke-linecap:round;stroke-linejoin:round;stroke-miterlimit:10;}
	.st2{fill:#76ECFF;}
	.st3{fill:#E4E7E7;}
	.st4{fill:#FF697B;}
	.st5{fill:#659EC9;}
	.st6{fill:#444B54;}
	.st7{fill:#A4F4C4;}
	.st8{fill:#06A18C;}
	.st9{fill:#8FE5B5;}
	.st10{opacity:0.5;fill:#06A18C;}
	.st11{opacity:0.5;}
	.st12{fill:#FFDBAB;}
	.st13{fill:#D18669;}
	.st14{fill:#FCF09D;}
	.st15{fill:none;stroke:#FFFFFF;stroke-miterlimit:10;}
	.st16{fill:#EDECEB;}
	.st17{fill:#4FBBC6;}
	.st18{display:none;}
	.st19{display:inline;fill:#5EC8D3;}
	.st20{display:inline;}
	.st21{fill:#ED74A5;}
	.st22{fill:#C12762;}
</style><g><circle class="st21" cx="64" cy="64" r="45"/></g><g><path class="st0" d="M34,42.1c-0.7,0-1.4-0.2-1.9-0.7c-1.3-1.1-1.5-2.9-0.4-4.2C39.7,27.5,51.5,22,64,22c1.7,0,3,1.3,3,3   s-1.3,3-3,3c-10.7,0-20.8,4.8-27.7,13.1C35.7,41.8,34.8,42.1,34,42.1z"/></g><path class="st22" d="M108.7,65.6l-7.5-2.1c-8.8-2.5-17.9-2.8-26.6-1c-1.1-2.6-2.3-5.2-3.6-7.8c10.2-4.9,19.4-11.8,27.1-20.5  c1.1-1.2-3.4-5.2-4.5-4c-7.2,8.2-15.8,14.6-25.3,19.1c-2.8-5.2-5.8-10.2-9.1-15c-0.9-1.4-2.8-1.7-4.2-0.8c-1.4,0.9-1.7,2.8-0.8,4.2  c3.1,4.5,5.9,9.2,8.5,14c-9.8,3.8-20.5,5.6-31.4,5.1c-1.7-0.1-3.1,1.2-3.1,2.9c-0.1,1.7,1.2,3.1,2.9,3.1c1.2,0,2.4,0.1,3.6,0.1  c10.7,0,21.1-2,30.8-5.8c1.1,2.3,2.2,4.6,3.2,7c-2.8,0.9-5.6,2-8.4,3.4C47.7,73.9,38,84.8,33.1,98.1c-0.6,1.6,5.2,3.3,5.6,2.1  c5.6-15.1,17.9-26,32.4-30.5c4.5,11.4,7.7,23.2,9.5,35.2c0.2,1.5,6.2,0.7,5.9-0.9c-1.8-12.2-5.1-24.2-9.6-35.8  c7.3-1.4,15.1-1.1,22.6,1l7.5,2.1C108.6,71.8,110.3,66,108.7,65.6z"/><g><circle class="st0" cx="27.1" cy="51.2" r="3"/></g><g><path class="st6" d="M64,112c-26.5,0-48-21.5-48-48s21.5-48,48-48c4.9,0,9.7,0.7,14.3,2.2c7.4,2.3,14.2,6.4,19.7,11.9   C107,39.1,112,51.2,112,64C112,90.5,90.5,112,64,112z M64,22c-23.2,0-42,18.8-42,42s18.8,42,42,42c23.2,0,42-18.8,42-42   c0-11.2-4.4-21.8-12.3-29.7c-4.8-4.8-10.8-8.4-17.2-10.4C72.5,22.6,68.3,22,64,22z"/></g></svg>